<svg width="512" height="512" viewBox="0 0 512 512" fill="none" xmlns="http://www.w3.org/2000/svg">
<path d="M398.5 12.5L503.5 30.5L510.5 220.5L486 319.5L496 426L452 496L284.5 506L196.5 496L47 506L7.5 392.5L14.5 200L2 137.5L14.5 6L131.5 22.5L398.5 12.5Z" fill="#C0C0C0"/>
<path d="M135.5 80.5L130.5 54.5L58.5 80.5L62 219.5L21 243V262.5L58.5 300L67 436L130.5 458L135.5 430L92 414L88.5 279.5L55.5 255L92 229.5L88.5 100.5L135.5 80.5Z" fill="black"/>
<path d="M372 80.5L381.5 54L454.5 80.5V221L491 245.5L487.5 263L454.5 292.5L443.5 439.5L381.5 457.5L375 429.5L420.5 414.5L427 277L457.5 254L420.5 234L424 97.5L372 80.5Z" fill="black"/>
<path d="M181 140.5L170 107.5L242.5 111L336 346.5L374 338.5L379.5 365.5L319 389.5L258 231L173 389.5L145.5 381L246 203L220.5 137.5L181 140.5Z" fill="black"/>
</svg>
