<svg width="512" height="512" viewBox="0 0 512 512" fill="none" xmlns="http://www.w3.org/2000/svg">
<rect width="512" height="512" fill="#C0C0C0"/>
<path d="M142.5 84.5L137.5 58.5L65.5 84.5L69 223.5L28 247V266.5L65.5 304L74 440L137.5 462L142.5 434L99 418L95.5 283.5L62.5 259L99 233.5L95.5 104.5L142.5 84.5Z" fill="white"/>
<path d="M379 84.5L388.5 58L461.5 84.5V225L498 249.5L494.5 267L461.5 296.5L450.5 443.5L388.5 461.5L382 433.5L427.5 418.5L434 281L464.5 258L427.5 238L431 101.5L379 84.5Z" fill="white"/>
<path d="M188 144.5L177 111.5L249.5 115L343 350.5L381 342.5L386.5 369.5L326 393.5L265 235L180 393.5L152.5 385L253 207L227.5 141.5L188 144.5Z" fill="white"/>
<path d="M129.5 77.5L124.5 51.5L52.5 77.5L56 216.5L15 240V259.5L52.5 297L61 433L124.5 455L129.5 427L86 411L82.5 276.5L49.5 252L86 226.5L82.5 97.5L129.5 77.5Z" fill="black"/>
<path d="M366 77.5L375.5 51L448.5 77.5V218L485 242.5L481.5 260L448.5 289.5L437.5 436.5L375.5 454.5L369 426.5L414.5 411.5L421 274L451.5 251L414.5 231L418 94.5L366 77.5Z" fill="black"/>
<path d="M175 137.5L164 104.5L236.5 108L330 343.5L368 335.5L373.5 362.5L313 386.5L252 228L167 386.5L139.5 378L240 200L214.5 134.5L175 137.5Z" fill="black"/>
<path d="M135.5 83.5L130.5 57.5L58.5 83.5L62 222.5L21 246V265.5L58.5 303L67 439L130.5 461L135.5 433L92 417L88.5 282.5L55.5 258L92 232.5L88.5 103.5L135.5 83.5Z" fill="#2B2B2B"/>
<path d="M372 83.5L381.5 57L454.5 83.5V224L491 248.5L487.5 266L454.5 295.5L443.5 442.5L381.5 460.5L375 432.5L420.5 417.5L427 280L457.5 257L420.5 237L424 100.5L372 83.5Z" fill="#2B2B2B"/>
<path d="M181 143.5L170 110.5L242.5 114L336 349.5L374 341.5L379.5 368.5L319 392.5L258 234L173 392.5L145.5 384L246 206L220.5 140.5L181 143.5Z" fill="#2B2B2B"/>
</svg>
